<svg data-v-0dd9719b="" version="1.0" xmlns="http://www.w3.org/2000/svg" xmlns:xlink="http://www.w3.org/1999/xlink" width="100%" height="100%" viewBox="0 0 340.000000 250.000000" preserveAspectRatio="xMidYMid meet" color-interpolation-filters="sRGB" style="margin: auto;"> <rect data-v-0dd9719b="" x="0" y="0" width="100%" height="100%" fill="#fff" fill-opacity="1" class="background"></rect> <rect data-v-0dd9719b="" x="0" y="0" width="100%" height="100%" fill="url(#watermark)" fill-opacity="1" class="watermarklayer"></rect> <g data-v-0dd9719b="" fill="#00adee" class="icon-text-wrapper icon-svg-group iconsvg" transform="translate(49.31500244140625,94.99880027770996)"><g class="iconsvg-imagesvg" transform="translate(0,0)"><g><rect fill="#00adee" fill-opacity="0" stroke-width="2" x="0" y="0" width="60" height="60.00240009600384" class="image-rect"></rect> <svg x="0" y="0" width="60" height="60.00240009600384" filtersec="colorsb5162077954" class="image-svg-svg primary" style="overflow: visible;"><svg xmlns="http://www.w3.org/2000/svg" viewBox="13.189994812011719 9 961.3399047851562 961.3800048828125"><path opacity=".6" fill="#00ADEE" d="M974.52 119.83C974.52 58.65 924.93 9 863.68 9H341.2c-61.24 0-110.85 49.65-110.85 110.83v522.54c0 61.24 49.61 110.83 110.85 110.83h522.48c61.25 0 110.85-49.58 110.85-110.83V119.83z"></path><path opacity=".81" fill="#00ADEE" d="M970.29 825.97c0-13.91-11.28-25.15-25.17-25.15H826.33c-13.88 0-25.2 11.25-25.2 25.15v118.79c0 13.91 11.32 25.19 25.2 25.19h118.78c13.89 0 25.17-11.28 25.17-25.19V825.97zM202.19 25.49c0-8.93-7.27-16.2-16.21-16.2h-76.62c-8.98 0-16.22 7.27-16.22 16.2v76.59c0 9 7.24 16.25 16.22 16.25h76.62c8.94 0 16.21-7.25 16.21-16.25V25.49z"></path><path opacity=".8" fill="#00ADEE" d="M612.85 459.97c0-49.35-39.96-89.29-89.29-89.29h-421.1c-49.29 0-89.27 39.94-89.27 89.29v421.08c0 49.35 39.99 89.33 89.27 89.33h421.1c49.32 0 89.29-39.98 89.29-89.33V459.97z"></path></svg></svg> <!----></g></g> <g transform="translate(67,7.991201400756836)"><g data-gra="path-name" fill-rule="" class="tp-name iconsvg-namesvg"><g transform="scale(1)"><g><path d="M19.38 0.67Q11.62 0.67 4.83-2.26L4.83-2.26Q4.1-2.57 3.58-3.3 3.06-4.04 3.06-4.83L3.06-4.83Q3.06-5.93 3.79-6.69 4.52-7.46 5.63-7.46L5.63-7.46Q6.3-7.46 6.79-7.21L6.79-7.21Q12.47-4.71 18.83-4.71L18.83-4.71Q29.47-4.71 29.47-11.68L29.47-11.68Q29.47-13.51 28.13-14.67L28.13-14.67Q26.9-15.84 25.07-16.51 23.23-17.18 19.01-18.28L19.01-18.28Q14.18-19.5 11.01-20.79L11.01-20.79Q7.28-22.19 5.38-24.73 3.49-27.27 3.49-30.75L3.49-30.75Q3.49-34.24 5.32-37.17L5.32-37.17Q7.21-40.17 10.91-41.76 14.61-43.35 19.38-43.35L19.38-43.35Q26.11-43.35 31.55-41.33L31.55-41.33Q33.32-40.66 33.32-38.82L33.32-38.82Q33.32-37.85 32.59-37.02 31.85-36.2 30.82-36.2L30.82-36.2Q30.39-36.2 29.84-36.44L29.84-36.44Q25.07-38.09 19.99-38.09L19.99-38.09Q15.1-38.09 12.14-36.26 9.17-34.42 9.17-31.18L9.17-31.18Q9.17-28.98 10.64-27.7L10.64-27.7Q11.98-26.41 14-25.62 16.02-24.82 20.05-23.91L20.05-23.91Q25.19-22.68 27.88-21.58L27.88-21.58Q31.12-20.36 33.11-17.79 35.1-15.22 35.1-11.31L35.1-11.31Q35.1-7.95 33.14-5.14L33.14-5.14Q31.12-2.32 27.54-0.83 23.97 0.67 19.38 0.67L19.38 0.67ZM43.47 0.37Q42.25 0.37 41.45-0.46 40.66-1.28 40.66-2.45L40.66-2.45Q40.66-2.87 40.96-3.67L40.96-3.67 56.56-40.48Q57.11-41.7 58.02-42.37 58.94-43.04 60.16-43.04L60.16-43.04 60.77-43.04Q62-43.04 62.91-42.37 63.83-41.7 64.38-40.48L64.38-40.48 79.97-3.67Q80.28-2.87 80.28-2.45L80.28-2.45Q80.28-1.28 79.48-0.46 78.69 0.37 77.47 0.37L77.47 0.37Q76.55 0.37 75.85-0.09 75.14-0.55 74.78-1.41L74.78-1.41 70.8-10.88 50.14-10.88 46.16-1.41Q45.79-0.55 45.09-0.09 44.39 0.37 43.47 0.37L43.47 0.37ZM60.96-34.61Q60.77-35.03 60.47-35.03L60.47-35.03Q60.16-35.03 59.98-34.61L59.98-34.61 52.28-16.08 68.66-16.08 60.96-34.61ZM91.96 0.37Q90.79 0.37 89.97-0.46 89.14-1.28 89.14-2.45L89.14-2.45 89.14-38.95Q89.14-40.6 90.34-41.82 91.53-43.04 93.18-43.04L93.18-43.04 95.2-43.04Q96.36-43.04 97.4-42.34 98.44-41.64 98.99-40.41L98.99-40.41 112.32-7.15Q112.5-6.73 112.81-6.73L112.81-6.73Q113.11-6.73 113.29-7.15L113.29-7.15 126.62-40.41Q127.17-41.64 128.21-42.34 129.25-43.04 130.41-43.04L130.41-43.04 132.43-43.04Q134.08-43.04 135.28-41.82 136.47-40.6 136.47-38.95L136.47-38.95 136.47-2.45Q136.47-1.28 135.64-0.46 134.82 0.37 133.65 0.37L133.65 0.37Q132.49 0.37 131.64-0.46 130.78-1.28 130.78-2.45L130.78-2.45 130.78-34.73Q130.78-35.28 130.41-35.28L130.41-35.28Q130.17-35.28 129.99-34.91L129.99-34.91 116.78-2.26Q116.29-1.1 115.19-0.37 114.09 0.37 112.81 0.37L112.81 0.37Q111.52 0.37 110.42-0.37 109.32-1.1 108.83-2.26L108.83-2.26 95.63-34.91Q95.44-35.28 95.2-35.28L95.2-35.28Q94.83-35.28 94.83-34.73L94.83-34.73 94.83-2.45Q94.83-1.28 93.97-0.46 93.12 0.37 91.96 0.37L91.96 0.37ZM161.72 0.67Q153.95 0.67 147.17-2.26L147.17-2.26Q146.43-2.57 145.91-3.3 145.39-4.04 145.39-4.83L145.39-4.83Q145.39-5.93 146.13-6.69 146.86-7.46 147.96-7.46L147.96-7.46Q148.63-7.46 149.12-7.21L149.12-7.21Q154.81-4.71 161.17-4.71L161.17-4.71Q171.81-4.71 171.81-11.68L171.81-11.68Q171.81-13.51 170.46-14.67L170.46-14.67Q169.24-15.84 167.4-16.51 165.57-17.18 161.35-18.28L161.35-18.28Q156.52-19.5 153.34-20.79L153.34-20.79Q149.61-22.19 147.72-24.73 145.82-27.27 145.82-30.75L145.82-30.75Q145.82-34.24 147.66-37.17L147.66-37.17Q149.55-40.17 153.25-41.76 156.95-43.35 161.72-43.35L161.72-43.35Q168.44-43.35 173.89-41.33L173.89-41.33Q175.66-40.66 175.66-38.82L175.66-38.82Q175.66-37.85 174.93-37.02 174.19-36.2 173.15-36.2L173.15-36.2Q172.72-36.2 172.17-36.44L172.17-36.44Q167.4-38.09 162.33-38.09L162.33-38.09Q157.44-38.09 154.47-36.26 151.51-34.42 151.51-31.18L151.51-31.18Q151.51-28.98 152.98-27.7L152.98-27.7Q154.32-26.41 156.34-25.62 158.36-24.82 162.39-23.91L162.39-23.91Q167.53-22.68 170.22-21.58L170.22-21.58Q173.46-20.36 175.44-17.79 177.43-15.22 177.43-11.31L177.43-11.31Q177.43-7.95 175.48-5.14L175.48-5.14Q173.46-2.32 169.88-0.83 166.3 0.67 161.72 0.67L161.72 0.67Z" transform="translate(-3.059999942779541, 43.349998474121094)"></path></g> <!----> <!----> <!----> <!----> <!----> <!----> <!----></g></g> <!----></g></g><defs v-gra="od"></defs></svg>